<?xml version="1.0" encoding="utf-8"?>
<!-- Generator: Adobe Illustrator 23.0.2, SVG Export Plug-In . SVG Version: 6.00 Build 0)  -->
<svg version="1.1" id="Layer_1" xmlns="http://www.w3.org/2000/svg" xmlns:xlink="http://www.w3.org/1999/xlink" x="0px" y="0px"
	 viewBox="0 0 50 50" style="enable-background:new 0 0 50 50;" xml:space="preserve">
<style type="text/css">
	.st0{fill:#FFFFFF;}
</style>
<g>
	<g>
		<path class="st0" d="M24.6,39.9c-6.9,0-13.5-2.9-18.5-8.3c-0.6-0.7-0.6-1.7,0.1-2.3c0.7-0.6,1.7-0.6,2.3,0.1
			c4.4,4.7,10.1,7.3,16.1,7.3c7.8,0,14.9-4.2,19.3-11.4c-4.4-7.2-11.5-11.4-19.3-11.4c-8,0-15.4,4.6-19.8,12.2
			c-0.4,0.8-1.4,1.1-2.2,0.6c-0.8-0.4-1.1-1.4-0.6-2.2C7,15.8,15.4,10.6,24.6,10.6c9.2,0,17.7,5.2,22.6,13.9c0.3,0.5,0.3,1.1,0,1.6
			C42.3,34.7,33.9,39.9,24.6,39.9z"/>
	</g>
	<g>
		<path class="st0" d="M24.6,33.4c-4.5,0-8.1-3.7-8.1-8.1s3.7-8.1,8.1-8.1s8.1,3.7,8.1,8.1S29.1,33.4,24.6,33.4z M24.6,20.3
			c-2.7,0-4.9,2.2-4.9,4.9s2.2,4.9,4.9,4.9s4.9-2.2,4.9-4.9S27.3,20.3,24.6,20.3z"/>
	</g>
</g>
</svg>
