<svg xmlns="http://www.w3.org/2000/svg" xmlns:xlink="http://www.w3.org/1999/xlink" viewBox="0 0 51.08 37.78"><defs><style>.cls-1{fill:none;}.cls-2{clip-path:url(#clip-path);}.cls-3{fill:#1180c4;}</style><clipPath id="clip-path" transform="translate(0)"><rect class="cls-1" width="51.08" height="37.78"/></clipPath></defs><title>Asset 1</title><g id="Layer_2" data-name="Layer 2"><g id="Layer_1-2" data-name="Layer 1"><g class="cls-2"><path class="cls-3" d="M13.46,37.78a11.64,11.64,0,0,1-9.28-4.61A15.44,15.44,0,0,1,0,22.33,19.51,19.51,0,0,1,6.45,7.83,29.34,29.34,0,0,1,20.58,0a3.44,3.44,0,0,1,1,4A27.86,27.86,0,0,0,13,9.15a10.78,10.78,0,0,0-3.93,8.42A6,6,0,0,0,12,23a11.62,11.62,0,0,0,5.44,2.34,5.09,5.09,0,0,1,3.4,1.54,6.09,6.09,0,0,1,1.36,3.88,7.15,7.15,0,0,1-1.66,4.32c-1.26,1.71-3.62,2.61-7.1,2.71m28.87,0A11.65,11.65,0,0,1,33,33.17a15.44,15.44,0,0,1-4.18-10.84,19.72,19.72,0,0,1,6.52-14.5A29.35,29.35,0,0,1,49.44,0a3.42,3.42,0,0,1,1,4,28,28,0,0,0-8.6,5.2,10.8,10.8,0,0,0-3.92,8.42A6,6,0,0,0,40.87,23a11.52,11.52,0,0,0,5.4,2.34,5.06,5.06,0,0,1,3.38,1.54,5.89,5.89,0,0,1,1.43,3.88,7.06,7.06,0,0,1-1.72,4.32q-1.87,2.57-7,2.71" transform="translate(0)"/></g></g></g></svg>