<svg id="Mark" xmlns="http://www.w3.org/2000/svg" viewBox="0 0 696.93 204.73"><defs><style>.cls-1{fill:#fdb913;}.cls-2{fill:#fff;}.cls-3{fill:none;}.cls-4{fill:#4a6ea7;}</style></defs><title>Artboard 3</title><rect class="cls-1" x="183.38" y="37.85" width="1.4" height="132.52"/><rect class="cls-1" x="183.38" y="37.85" width="1.4" height="132.52"/><rect class="cls-1" x="51.15" y="149.47" width="95.89" height="1.13"/><path class="cls-2" d="M40.29,159.1c0-1.33-.07-1.67-.88-1.74l-.57-.05a.29.29,0,0,1,0-.45c1-.09,2.18-.14,3.85-.14a6.71,6.71,0,0,1,3,.5,2.34,2.34,0,0,1,1.36,2.23,2.58,2.58,0,0,1-1.83,2.46c0,.18.14.23.34.27a3,3,0,0,1,2.4,3c0,2.07-1.54,3.47-4.76,3.47-.52,0-1.4,0-2.15,0s-1.4,0-2.06,0c-.11,0-.14-.34,0-.45l.33-.05c.94-.16,1-.36,1-2.24Zm1.47,2.38c0,.5,0,.54.93.5,1.83-.07,2.81-.61,2.81-2.29a2.37,2.37,0,0,0-2.67-2.42,2.21,2.21,0,0,0-.82.11c-.18.05-.25.14-.25.46Zm0,4.15a3.49,3.49,0,0,0,.37,2,1.74,1.74,0,0,0,1.42.51c1.59,0,2.81-.72,2.81-2.51,0-1.41-.71-3.06-3.56-3.06-1,0-1,.1-1,.46Z"/><path class="cls-2" d="M51.7,158a7.64,7.64,0,0,1,4.83-1.53,13.94,13.94,0,0,1,3.17.43,1.2,1.2,0,0,0,.5.07c0,.42.11,1.54.25,2.64a.38.38,0,0,1-.48,0c-.27-1.21-1.08-2.61-3.67-2.61s-5.07,1.74-5.07,5.44,2.38,5.84,5.32,5.84a3.82,3.82,0,0,0,3.74-2.56.37.37,0,0,1,.47.07,6.78,6.78,0,0,1-.86,2.45,4.17,4.17,0,0,0-.63.18,10.66,10.66,0,0,1-2.83.41A7.91,7.91,0,0,1,52,167.68a5.79,5.79,0,0,1-2.54-4.93A5.93,5.93,0,0,1,51.7,158"/><path class="cls-2" d="M69,165.9c0,1.88,0,2.12,1.19,2.24l.48.05a.35.35,0,0,1,0,.45c-1,0-1.61,0-2.32,0s-1.4,0-2.19,0c-.11,0-.14-.34,0-.45l.37-.05c1-.14,1.08-.36,1.08-2.24v-6.61c0-1.52,0-1.82-.85-1.91l-.64-.07a.29.29,0,0,1,0-.45,27.25,27.25,0,0,1,3.54-.14,6.46,6.46,0,0,1,3.44.71,3.1,3.1,0,0,1,1.43,2.69A3,3,0,0,1,72.7,163a6.15,6.15,0,0,1-2.47.53c-.13-.05-.13-.32,0-.36a2.78,2.78,0,0,0,2.63-3A2.64,2.64,0,0,0,70,157.27c-.95,0-1,.07-1,.65Z"/><path class="cls-2" d="M77.19,166c0,1.23.31,2.06,1.67,2.06a2.34,2.34,0,0,0,1.45-.54,1.27,1.27,0,0,0,.36-1V163.5c0-1.16-.13-1.2-.66-1.41l-.24-.09a.25.25,0,0,1,0-.4,6.92,6.92,0,0,0,2.1-.32.19.19,0,0,1,.16.13A15.06,15.06,0,0,0,82,163v3c0,1.42.06,1.95.56,1.95a3.67,3.67,0,0,0,.7-.08c.1.08.12.44,0,.51a9.64,9.64,0,0,0-2.35.67.24.24,0,0,1-.21-.13v-.73c0-.16,0-.25-.16-.25a4.71,4.71,0,0,1-2.47.93c-1.58,0-2.17-.79-2.17-2.24v-3c0-1.13,0-1.29-.54-1.52l-.21-.09a.27.27,0,0,1,0-.4,5.89,5.89,0,0,0,1.92-.32c.11,0,.16.06.18.13a12.06,12.06,0,0,0-.06,1.56Z"/><path class="cls-2" d="M84.68,158.49c0-1.06,0-1.17-.56-1.49l-.17-.11a.26.26,0,0,1,0-.35,17.87,17.87,0,0,0,2-.75.2.2,0,0,1,.18.1c0,.63-.08,1.43-.08,2.22v3.39c0,.3.08.37.18.37a4.16,4.16,0,0,1,2.06-.59,3.35,3.35,0,0,1,3.42,3.51,3.93,3.93,0,0,1-4.12,4.05A5,5,0,0,1,86,168.6a4.09,4.09,0,0,0-.75-.23c-.14,0-.29.15-.37.27s0,0-.08,0a.21.21,0,0,1-.18-.11c0-.25,0-.59,0-1.52ZM86,166.15a2.51,2.51,0,0,0,.45,1.56,1.7,1.7,0,0,0,1.36.59c1.69,0,2.35-1.43,2.35-3,0-1.85-1-3.28-2.72-3.28a2.35,2.35,0,0,0-1.22.29c-.18.12-.22.32-.22,1Z"/><path class="cls-2" d="M95,166.58c0,1.29,0,1.47.68,1.56l.43.05a.32.32,0,0,1,0,.45c-.6,0-1.11,0-1.74,0s-1.18,0-1.72,0a.33.33,0,0,1,0-.45l.42-.05c.66-.09.68-.27.68-1.56v-8.09c0-1.06,0-1.17-.56-1.49l-.18-.11a.26.26,0,0,1,0-.35,13.62,13.62,0,0,0,1.94-.75.2.2,0,0,1,.18.1c0,.54-.06,1.43-.06,2.22Z"/><path class="cls-2" d="M98.11,163.45c0-.7,0-.79-.48-1.11l-.17-.11c-.07-.07-.07-.27,0-.32a12.38,12.38,0,0,0,1.85-.88.17.17,0,0,1,.18.11c0,.63-.08,1.48-.08,2.22v3.22c0,1.29,0,1.47.68,1.56l.38.05a.31.31,0,0,1,0,.45c-.53,0-1,0-1.68,0s-1.18,0-1.68,0c-.13,0-.16-.36,0-.45l.38-.05c.66-.09.68-.27.68-1.56Zm1.48-5.1a.87.87,0,0,1-.94.93.88.88,0,0,1-.92-.9.93.93,0,0,1,1-1,.88.88,0,0,1,.89.93"/><path class="cls-2" d="M107.35,161.59a1,1,0,0,1,.27.71c0,.32-.18.67-.4.67a.31.31,0,0,1-.25-.13,2.44,2.44,0,0,0-1.79-1,2.59,2.59,0,0,0-2.47,2.88,3,3,0,0,0,2.88,3.07,2.19,2.19,0,0,0,2-1.08.28.28,0,0,1,.32.25,3.25,3.25,0,0,1-3,1.83,3.47,3.47,0,0,1-2.45-.92,3.53,3.53,0,0,1-1-2.65,4,4,0,0,1,4.34-4,4.35,4.35,0,0,1,1.59.31"/><path class="cls-2" d="M116.07,168.87a5.53,5.53,0,0,1-2.79-.66,8.16,8.16,0,0,1-.49-2.51c.09-.12.36-.16.43,0a3.27,3.27,0,0,0,3.08,2.67,2,2,0,0,0,2.24-2.06,2.7,2.7,0,0,0-1.47-2.51l-1.7-1.11a3.82,3.82,0,0,1-1.93-3.08c0-1.7,1.32-3.08,3.65-3.08a6.65,6.65,0,0,1,1.66.24,2.51,2.51,0,0,0,.63.1,7.94,7.94,0,0,1,.32,2.19c-.07.1-.35.16-.44.05a2.35,2.35,0,0,0-2.44-2,1.88,1.88,0,0,0-2.13,2,2.83,2.83,0,0,0,1.52,2.2l1.43.89a4,4,0,0,1,2.24,3.44c0,2-1.48,3.31-3.81,3.31"/><path class="cls-2" d="M122.75,164c-.47,0-.49,0-.49.49,0,1.81,1.06,3.35,3,3.35a1.91,1.91,0,0,0,1.64-.88.24.24,0,0,1,.33.21,3.14,3.14,0,0,1-2.82,1.67,3.2,3.2,0,0,1-2.59-1.18,4.06,4.06,0,0,1,2.85-6.38,2.35,2.35,0,0,1,2.54,2.13,1.25,1.25,0,0,1-.07.47c-.06.11-.31.12-1.06.12Zm1.11-.53c1.32,0,1.72-.07,1.86-.18s.11-.11.11-.34c0-.51-.34-1.13-1.38-1.13a2.1,2.1,0,0,0-2,1.56s0,.09.13.09Z"/><path class="cls-2" d="M129.09,163.45c0-.7,0-.79-.49-1.11l-.16-.11c-.07-.07-.07-.27,0-.32a13.58,13.58,0,0,0,1.81-.88c.09,0,.14.06.14.13v1c0,.1,0,.15.06.17a3.58,3.58,0,0,1,2-1.08.74.74,0,0,1,.8.72.79.79,0,0,1-.77.82.67.67,0,0,1-.39-.12,1.48,1.48,0,0,0-.79-.29.8.8,0,0,0-.65.36,2.83,2.83,0,0,0-.23,1.38v2.43c0,1.29,0,1.51.72,1.56l.64.05a.32.32,0,0,1,0,.45c-.85,0-1.36,0-2,0s-1.18,0-1.65,0a.32.32,0,0,1,0-.45l.34-.05c.66-.11.68-.27.68-1.56Z"/><path class="cls-2" d="M134.89,163.31c-.27-.67-.43-1.24-1.08-1.33l-.35,0c-.11-.15-.09-.4,0-.45.45,0,1.07.05,1.68.05s.84,0,1.45-.05a.31.31,0,0,1,0,.45l-.21,0c-.56.09-.58.18-.4.72.41,1.23.93,2.49,1.34,3.42a3.45,3.45,0,0,0,.29.57A2.05,2.05,0,0,0,138,166c.23-.61.84-2.17,1-2.63a4,4,0,0,0,.32-1.11c0-.16-.1-.23-.32-.27l-.41,0a.32.32,0,0,1,0-.45c.55,0,1,.05,1.34.05s.75,0,1.25-.05a.33.33,0,0,1,0,.45l-.27,0c-.63.09-.79.56-1.31,1.56-.25.48-1.36,3.08-1.64,3.81-.18.45-.36.86-.6,1.47,0,.06-.1.07-.17.07a.33.33,0,0,1-.24-.07,19.37,19.37,0,0,0-.68-1.86Z"/><path class="cls-2" d="M142.73,163.45c0-.7,0-.79-.48-1.11l-.16-.11a.23.23,0,0,1,0-.32A11.52,11.52,0,0,0,144,161a.17.17,0,0,1,.18.11c0,.63-.07,1.48-.07,2.22v3.22c0,1.29,0,1.47.68,1.56l.37.05a.32.32,0,0,1,0,.45c-.54,0-1.06,0-1.69,0s-1.18,0-1.68,0c-.13,0-.16-.36,0-.45l.38-.05c.66-.09.68-.27.68-1.56Zm1.49-5.1a.94.94,0,0,1-1.87,0,.93.93,0,0,1,1-1,.89.89,0,0,1,.9.93"/><path class="cls-2" d="M152,161.59a1,1,0,0,1,.27.71c0,.32-.18.67-.4.67a.34.34,0,0,1-.25-.13,2.44,2.44,0,0,0-1.79-1,2.59,2.59,0,0,0-2.47,2.88,3,3,0,0,0,2.89,3.07,2.18,2.18,0,0,0,2-1.08.28.28,0,0,1,.32.25,3.25,3.25,0,0,1-3,1.83,3.48,3.48,0,0,1-2.45-.92,3.57,3.57,0,0,1-1-2.65,4,4,0,0,1,4.34-4,4.35,4.35,0,0,1,1.59.31"/><path class="cls-2" d="M154.71,164c-.47,0-.48,0-.48.49,0,1.81,1.05,3.35,3,3.35a1.94,1.94,0,0,0,1.65-.88.23.23,0,0,1,.32.21,3.13,3.13,0,0,1-2.81,1.67,3.21,3.21,0,0,1-2.6-1.18,4.06,4.06,0,0,1,2.85-6.38,2.35,2.35,0,0,1,2.54,2.13,1.25,1.25,0,0,1-.07.47c-.06.11-.31.12-1.06.12Zm1.11-.53c1.32,0,1.72-.07,1.86-.18s.11-.11.11-.34c0-.51-.34-1.13-1.38-1.13a2.1,2.1,0,0,0-2,1.56s0,.09.13.09Z"/><path class="cls-2" d="M276.4,128.61c0-4.21-.07-4.64-2.22-5.93l-.71-.43a1.07,1.07,0,0,1,0-1.42,52.55,52.55,0,0,0,7.71-3,.8.8,0,0,1,.72.42c-.07,2.15-.22,5.72-.22,8.86v15c0,.65.07,1.22.29,1.36a16.22,16.22,0,0,1,9.64-3.71c6.79,0,9.22,4.21,9.22,9.21V160.9c0,5.15.14,5.93,2.71,6.22l1.93.21a1.25,1.25,0,0,1-.14,1.79c-2.57-.15-4.64-.22-7.14-.22s-4.72.07-6.65.22a1.25,1.25,0,0,1-.14-1.79l1.43-.21c2.64-.43,2.71-1.07,2.71-6.22V150.69c0-4.58-2.21-7.65-6.78-7.65a8.59,8.59,0,0,0-5.58,1.93c-1.28,1.07-1.5,1.43-1.5,3.93v12c0,5.15.15,5.86,2.72,6.22l1.5.21c.5.29.35,1.57-.14,1.79-2.15-.15-4.22-.22-6.72-.22s-4.71.07-7,.22a1.25,1.25,0,0,1-.14-1.79l1.78-.21c2.65-.29,2.72-1.07,2.72-6.22Z"/><path class="cls-2" d="M312.68,150.61c-1.86,0-1.93.15-1.93,1.93,0,7.22,4.22,13.36,11.86,13.36,2.36,0,4.36-.71,6.57-3.5a1,1,0,0,1,1.29.86c-2.36,4.86-7.5,6.64-11.22,6.64a12.82,12.82,0,0,1-10.36-4.71,15.21,15.21,0,0,1-3-9.29c0-8.79,5.79-16.14,14.36-16.14,6.15,0,10.15,4.21,10.15,8.5a4.38,4.38,0,0,1-.29,1.85c-.21.43-1.21.5-4.21.5Zm4.43-2.14c5.28,0,6.86-.29,7.43-.71.21-.15.43-.43.43-1.36,0-2-1.36-4.5-5.5-4.5s-7.86,3.86-7.93,6.21c0,.15,0,.36.5.36Z"/><path class="cls-2" d="M336.9,148.4c0-2.79,0-3.14-1.93-4.43l-.65-.43a1,1,0,0,1,.08-1.28,55.73,55.73,0,0,0,7.21-3.5c.36.07.57.21.57.5v4.14c0,.36.07.57.22.64,2.5-2.07,5.21-4.28,7.85-4.28a3,3,0,0,1,3.22,2.85,3.17,3.17,0,0,1-3.07,3.29,2.77,2.77,0,0,1-1.57-.5,5.85,5.85,0,0,0-3.15-1.14,3.18,3.18,0,0,0-2.57,1.42c-.71,1-.93,3.08-.93,5.51v9.71c0,5.15.15,6,2.86,6.22l2.57.21a1.25,1.25,0,0,1-.14,1.79c-3.36-.15-5.43-.22-7.93-.22s-4.72.07-6.57.22a1.26,1.26,0,0,1-.15-1.79l1.36-.21c2.64-.43,2.72-1.07,2.72-6.22Z"/><path class="cls-2" d="M360.4,150.61c-1.86,0-1.93.15-1.93,1.93,0,7.22,4.21,13.36,11.86,13.36,2.36,0,4.36-.71,6.57-3.5a1,1,0,0,1,1.29.86c-2.36,4.86-7.5,6.64-11.22,6.64a12.82,12.82,0,0,1-10.36-4.71,15.21,15.21,0,0,1-3-9.29c0-8.79,5.79-16.14,14.36-16.14,6.14,0,10.14,4.21,10.14,8.5a4.43,4.43,0,0,1-.28,1.85c-.22.43-1.22.5-4.22.5Zm4.43-2.14c5.28,0,6.86-.29,7.43-.71.21-.15.43-.43.43-1.36,0-2-1.36-4.5-5.5-4.5s-7.86,3.86-7.93,6.21c0,.15,0,.36.5.36Z"/><path class="cls-2" d="M396.8,148.4c0-2.79,0-3.14-1.93-4.43l-.64-.43a1,1,0,0,1,.07-1.28,49.1,49.1,0,0,0,7.36-3.5c.36,0,.64.14.71.42-.14,2.51-.28,5.93-.28,8.86V160.9c0,5.15.14,5.86,2.71,6.22l1.5.21a1.25,1.25,0,0,1-.14,1.79c-2.14-.15-4.22-.22-6.72-.22s-4.71.07-6.71.22a1.25,1.25,0,0,1-.14-1.79l1.5-.21c2.64-.36,2.71-1.07,2.71-6.22ZM402.73,128a3.72,3.72,0,0,1-7.43.14,3.71,3.71,0,0,1,3.86-3.85A3.57,3.57,0,0,1,402.73,128Z"/><path class="cls-2" d="M435.66,158.47c0,5.65.07,8.29,2.07,8.29a12,12,0,0,0,3.08-.71c.5.14.57,1.92-.07,2.28a53,53,0,0,0-9.43,2.29c-.43,0-.79-.22-.79-.57v-1.22a8.06,8.06,0,0,0-.14-2.21h-.29c-3.14,2.14-5.57,3.28-9,3.28-7.93,0-13.22-6.21-13.22-13.71,0-10,7.58-16.43,17.29-16.43a14.6,14.6,0,0,1,4.79.64c.36,0,.43-.43.43-1V128.61c0-4.21-.07-4.64-2.22-5.93l-.71-.43a1.07,1.07,0,0,1,0-1.42,52.55,52.55,0,0,0,7.71-3,.8.8,0,0,1,.72.42c-.07,2.15-.22,5.72-.22,8.86Zm-5.28-10.71a4.18,4.18,0,0,0-.79-2.79,7.44,7.44,0,0,0-6-3c-6.5,0-9.86,5.64-9.86,11.86,0,6.5,3.64,12.64,10.65,12.64a8.73,8.73,0,0,0,5.5-2,4.32,4.32,0,0,0,.5-2.64Z"/><path class="cls-2" d="M448.51,150.61c-1.85,0-1.93.15-1.93,1.93,0,7.22,4.22,13.36,11.86,13.36,2.36,0,4.36-.71,6.58-3.5a.94.94,0,0,1,1.28.86c-2.36,4.86-7.5,6.64-11.21,6.64a12.8,12.8,0,0,1-10.36-4.71,15.15,15.15,0,0,1-3-9.29c0-8.79,5.78-16.14,14.36-16.14,6.14,0,10.14,4.21,10.14,8.5a4.22,4.22,0,0,1-.29,1.85c-.21.43-1.21.5-4.21.5Zm4.43-2.14c5.29,0,6.86-.29,7.43-.71.22-.15.43-.43.43-1.36,0-2-1.36-4.5-5.5-4.5s-7.86,3.86-7.93,6.21c0,.15,0,.36.5.36Z"/><path class="cls-2" d="M482.66,154.11c1.07-.35,1.21-1,1.21-2.07l.07-3.28c.08-2.65-.78-6.22-5.21-6.22-2,0-4.43,1-4.57,3.22-.07,1.14-.14,2-.72,2.42a7.66,7.66,0,0,1-4.07,1.36.9.9,0,0,1-1-1c0-3.71,8.07-8.78,13.29-8.78s7.64,3,7.43,8.35l-.43,12.43c-.14,3.29.5,6.22,3.28,6.22a4,4,0,0,0,1.79-.43c.36-.21.72-.5.93-.5s.5.43.5.93-2.5,3.14-6,3.14a5.68,5.68,0,0,1-4.64-2.21c-.29-.43-.72-1-1.15-1s-1.35.64-2.78,1.43a10.66,10.66,0,0,1-5.15,1.78,7.41,7.41,0,0,1-5-1.64,6.7,6.7,0,0,1-2.21-5c0-2.79,1.36-4.43,5.93-6.07Zm-4.43,12.58a8.06,8.06,0,0,0,4.36-1.79c.85-.86.85-1.86.93-3.36l.14-4.21c0-.79-.29-.93-.72-.93a13.51,13.51,0,0,0-2.92.72c-4.22,1.42-6.29,2.5-6.29,5.28A4.31,4.31,0,0,0,478.23,166.69Z"/><path class="cls-2" d="M513.82,141a16.76,16.76,0,0,1,1.14,5.79,1.24,1.24,0,0,1-1.71.21c-1.22-3.14-3.36-5.21-6.29-5.21a4.22,4.22,0,0,0-4.57,4.36c0,2.92,3,4.5,5.5,5.92,3.79,2.15,7.29,4.58,7.29,9.65,0,5.43-5,8.14-10.29,8.14-3.36,0-5.86-.71-7.64-2.14a21.37,21.37,0,0,1-.86-7.22,1.22,1.22,0,0,1,1.64-.07c1.22,3.93,3.5,7.36,7.57,7.36,2.58,0,4.79-1.5,4.79-4.57,0-3.29-2.86-5.07-5.5-6.57-4.14-2.36-7.07-4.86-7.07-8.79,0-5.22,4.28-8.14,9.71-8.14C510.53,139.76,513.18,140.47,513.82,141Z"/><path class="cls-2" d="M534.08,147.69c-1.64-4-2.5-4.72-4.29-5.15l-1.14-.28c-.36-.36-.43-1.43.21-1.72,2.22.14,4.22.22,6.36.22s4.29-.08,6.22-.22a1.13,1.13,0,0,1,.14,1.72l-1.64.28c-1,.14-1.58.57-1.58,1a14.61,14.61,0,0,0,1.15,3.72l4.43,10.93c.64,1.64,1.28,2.93,1.28,3.07a15.43,15.43,0,0,0,1.64-3.43l3.5-8.64c.93-2.29,1-3.22.65-4.15a4,4,0,0,0-3.29-2.5l-1.14-.28a1.12,1.12,0,0,1,.21-1.72c1.79.14,4.08.22,5.93.22,2.22,0,4.36-.08,6.79-.22.64.22.64,1.36.21,1.72l-1.5.28c-2.85.57-2.71.79-1.85,3.29.78,2.35,4.64,11.43,5.43,13.36a7.56,7.56,0,0,0,.92,2,11.31,11.31,0,0,0,1-2c.93-2.07,3.79-9.65,4.86-12.65a10.34,10.34,0,0,0,.72-3.07c0-.43-.43-.79-1.29-.93l-1.79-.28a1.12,1.12,0,0,1,.08-1.72c2.07.14,3.85.22,5.64.22,1.36,0,3.07-.08,4.64-.22a1.18,1.18,0,0,1,.22,1.72l-1.43.28c-1.72.36-2.36,1.36-3.86,4.5-1.93,4-5.36,12.58-6.71,16.22-1,2.57-1.86,4.64-2.43,6.5a1.47,1.47,0,0,1-.93.29,1.11,1.11,0,0,1-.79-.29c-.43-1.29-1.71-5-2.93-7.86l-3.43-8.21a36.62,36.62,0,0,0-1.64-3.65,34.74,34.74,0,0,0-1.57,3.5l-3.72,8.93c-1.28,3.08-2.28,5.65-2.85,7.29a1.17,1.17,0,0,1-.86.29,1.28,1.28,0,0,1-.86-.29c-.43-1.5-1.57-4.43-2.14-5.93Z"/><path class="cls-2" d="M604.58,154.54c0,8.93-6.14,15.36-15.07,15.36-8.22,0-14.65-5.78-14.65-14.71a15,15,0,0,1,15.22-15.43C598.08,139.76,604.58,145.76,604.58,154.54ZM589.22,141.9c-4.71,0-8.22,4.5-8.22,12.36,0,6.5,2.93,13.5,9.22,13.5s8.22-6.57,8.22-12.07C598.44,149.61,596,141.9,589.22,141.9Z"/><path class="cls-2" d="M610.57,148.4c0-2.79,0-3.14-1.93-4.43l-.64-.43a1,1,0,0,1,.07-1.28,55.82,55.82,0,0,0,7.22-3.5c.35.07.57.21.57.5v4.14c0,.36.07.57.21.64,2.5-2.07,5.22-4.28,7.86-4.28a3,3,0,0,1,3.21,2.85,3.17,3.17,0,0,1-3.07,3.29,2.79,2.79,0,0,1-1.57-.5,5.79,5.79,0,0,0-3.14-1.14,3.16,3.16,0,0,0-2.57,1.42c-.72,1-.93,3.08-.93,5.51v9.71c0,5.15.14,6,2.85,6.22l2.58.21a1.26,1.26,0,0,1-.15,1.79c-3.35-.15-5.43-.22-7.93-.22s-4.71.07-6.57.22a1.25,1.25,0,0,1-.14-1.79l1.36-.21c2.64-.43,2.71-1.07,2.71-6.22Z"/><path class="cls-2" d="M631.36,128.61c0-4.21-.07-4.64-2.22-5.93l-.71-.43a1.07,1.07,0,0,1,0-1.42,52.12,52.12,0,0,0,7.71-3,.79.79,0,0,1,.72.42c-.07,2.15-.22,5.72-.22,8.86v24.5c0,.93.08,1.08,1.29,1.08,1.57,0,2.93-.79,4.86-2.79l2.93-3.14c2-2.15,2.5-2.93,2.5-3.29s-.36-.57-1.57-.71l-1.72-.22a1.07,1.07,0,0,1,0-1.78h1.64a111.41,111.41,0,0,0,11.36-.58c.5.22.58,1.43.15,1.79l-2.29.43a10.26,10.26,0,0,0-4.5,2.5c-2.79,2.21-5.21,4.79-6.5,6-.86.79-.93,1.14-.5,1.71a71,71,0,0,0,4.79,5.72c2.78,3.14,5.28,5.93,6.71,7.29a7.23,7.23,0,0,0,3.72,1.57l1,.14a1.2,1.2,0,0,1-.15,1.79c-2.07-.15-4.5-.22-6.78-.22-2.86,0-5.36.07-7.43.22a1.2,1.2,0,0,1-.15-1.79l1.29-.21c1.07-.15,1.79-.29,1.79-.72s-.29-.93-1.22-2l-7.64-8.86a2.93,2.93,0,0,0-2.22-1c-1.28,0-1.36.22-1.36,2.43v3.93c0,5.15.15,5.86,2.72,6.22l1.71.21a1.25,1.25,0,0,1-.14,1.79c-2.36-.15-4.43-.22-6.93-.22s-4.71.07-6.86.22a1.2,1.2,0,0,1-.07-1.79l1.57-.21c2.65-.36,2.72-1.07,2.72-6.22Z"/><path class="cls-2" d="M271.36,121c-1.72.14-3.63.21-6.14.21-2.05,0-3.83-.07-6.34-.21-.53.29-.6,1.07-.07,1.71l1.92.15c1.38.07,2.18.64,2.18,1.64a10.39,10.39,0,0,1-.55,2.33h0l-.13.46,0,.07h0c-1.36,4.68-.76,2.84-1.87,6.38-2,6.48-6,18.83-7.63,23.48-.3.88-.41,1.07-.86.08-1.9-4.9-7.63-20.83-9.36-26.6-.34-1.06-1.22-3.9-1.29-4.09-1.12-3.31-.69-3.54,1.88-3.75l1.72-.15c.39-.57.33-1.5-.13-1.71-1.52.14-4.62.21-7.92.21-2.65,0-4.78-.07-6.7-.21a1.16,1.16,0,0,0-.13,1.71l1.58.15c2.25.21,3.24,1.71,4.23,3.93.48,1.23.8,2.09,1.33,3.7.3.92.43,1.29-.25,3.25-5.23,15-6,17.17-8.21,23.56-.3.86-.52.52-.94-.47-2.44-6.4-8.58-24.9-9.52-27.78-.38-1.17-.91-3-.91-3a10.43,10.43,0,0,1-.49-2c0-.64.79-1.07,2.17-1.21l1.52-.15c.4-.5.47-1.5-.13-1.71-2.31.14-6.36.21-8.21.21-2.05,0-5-.07-6.8-.21a1.23,1.23,0,0,0-.2,1.71l1.58.15c2.25.23,3.09,1.36,4,3.41l.1.19c1.44,3.18,2.36,5.6,3.85,9.86s10.72,32.09,10.88,32.6a2.33,2.33,0,0,0,1,.19,1.32,1.32,0,0,0,.81-.23c.44-1.21,1.54-4.28,1.69-4.72,3.15-9.39,8.27-24.28,9.07-26.52.36-1,.55-.91,1,.24,2,5.89,6.66,18.71,9.36,27.47h0c.05.15.91,3,1.08,3.53a4.06,4.06,0,0,0,1.37.23,1.53,1.53,0,0,0,.88-.23c.18-.5,3-9.6,3.63-11.43,3-8.42,8-23.6,9.23-27.4.35-1.08.7-2.12,1-2.92,1.44-3.1,2.52-4,4.58-4.27l1.26-.15C272,122.18,271.89,121.25,271.36,121Z"/><rect class="cls-3" width="696.93" height="204.73"/><g id="BC_ID" data-name="BC ID"><g id="British_Columbia" data-name="British Columbia"><path id="A" class="cls-2" d="M161.47,142.87l-.08-.07-.34-.05c-1-.21-1.35-1.39-1.71-2.22l-5-11.85c-.05-.14-.15-.44-.35-.44s-.35.33-.42.52l-4.79,11.82a7.39,7.39,0,0,1-.94,1.86,1.35,1.35,0,0,1-.91.34l-.4,0-.58.06a.4.4,0,0,0,.05.56l.92,0c.66,0,1.31-.09,2-.09s1.11.05,1.66.08l.92,0a.4.4,0,0,0,0-.56l-.62-.07-.34,0c-.58-.06-1.29-.17-1.29-.8a3.84,3.84,0,0,1,.34-1.3l.75-1.77c.37-.85.22-.94,1.21-.94h3.37c1.19,0,1,0,1.54,1.2l.79,1.8a3.92,3.92,0,0,1,.35,1.15c0,.59-.65.63-1.26.69l-.37,0-.6,0a.4.4,0,0,0,.05.56l.92,0c.71,0,1.42-.08,2.1-.08.87,0,1.73.05,2.6.08h0c.29,0,0,0,.37,0A.4.4,0,0,0,161.47,142.87Zm-6.55-5.57H152c-.1,0-.92.1-.92-.14a1,1,0,0,1,.08-.29l1.75-4.34c.05-.12.23-.71.43-.71s.36.62.41.71l1.73,4.06a5.32,5.32,0,0,1,.17.52C155.65,137.37,155.07,137.3,154.92,137.3Z"/><path id="I" class="cls-2" d="M140.32,132c0-2.39,0-2.77-1.48-2.88l-.61,0c-.14-.09-.09-.49.05-.56,1.22,0,2,.07,3.06.07s1.8,0,3-.07c.15.07.2.47.05.56l-.6,0c-1.44.11-1.49.49-1.49,2.88v8c0,2.38.05,2.69,1.49,2.85l.6.07c.15.09.1.49-.05.56-1.21,0-2-.07-3-.07s-1.84,0-3.06.07a.42.42,0,0,1-.05-.56l.61-.07c1.43-.16,1.48-.47,1.48-2.85Z"/><path id="B" class="cls-2" d="M125.6,131.31c0-1.68-.11-2.11-1.29-2.2l-.85-.08c-.09-.09-.14-.55,0-.56,1.42-.1,3.21-.18,5.66-.18a11.29,11.29,0,0,1,4.43.64,3,3,0,0,1,2,2.84c0,1.63-1.1,2.47-2.68,3.11,0,.22.21.29.5.34a4,4,0,0,1,3.53,3.79c0,2.64-2.27,4.41-7,4.41-.77,0-2.06-.07-3.16-.07s-2.06.05-3,.07a.41.41,0,0,1-.06-.57l.48-.07c1.39-.2,1.45-.45,1.45-2.84Zm2.16,3c0,.64,0,.68,1.37.64,2.69-.09,4.14-.77,4.14-2.91s-1.93-3.07-3.93-3.07a3.68,3.68,0,0,0-1.21.14c-.27.07-.37.18-.37.59Zm0,5.27a4,4,0,0,0,.55,2.48,2.82,2.82,0,0,0,2.08.64c2.35,0,4.14-.91,4.14-3.19,0-1.79-1.05-3.88-5.24-3.88-1.43,0-1.53.14-1.53.59Z"/><path id="M" class="cls-2" d="M120.91,142.81l-.35,0a.91.91,0,0,1-.67-.26c-.32-.33-.29-1.29-.29-1.67V131c0-.43-.11-1.36.21-1.7a1.25,1.25,0,0,1,.78-.22h0l.33,0,.63-.05c.15-.09.1-.49,0-.56l-.93,0h-2.65c-.29,0-.55,0-.71.31L111.8,140,107,129.15c-.16-.38-.19-.69-.69-.69h-2.76l-.94,0c-.15.07-.2.47,0,.56l.63.05.36,0c1,.07,1.1.3,1,1.39L103.77,141c-.07,1.06-.13,1.63-1.24,1.73l-.36,0-.63.07a.4.4,0,0,0,0,.56l.92,0c.56,0,1.13-.08,1.71-.08s1.24.06,1.86.09h0l.92,0a.4.4,0,0,0,0-.56l-.62-.07-.35,0c-1.6-.11-1.57-1.24-1.47-2.63l.76-9.83h.19l5.17,12.1c0,.16.13.45.39.45s.32-.26.39-.43L117.34,130h.19v10.81c0,.43,0,1.32-.4,1.65a3.38,3.38,0,0,1-1,.28l-.34,0-.62.07a.4.4,0,0,0,0,.56l.91,0c.85,0,1.71-.09,2.57-.09.61,0,1.83.06,1.83.06l.95.06a.41.41,0,0,0,.05-.57Z"/><path id="U" class="cls-2" d="M97.89,134.12c0-1.39,0-4-.45-4.65a1.55,1.55,0,0,0-1.2-.48l-.59,0a.39.39,0,0,1,0-.54c.91,0,1.79.07,2.72.07s1.65,0,2.51-.07a.37.37,0,0,1,0,.54l-.57,0a1.44,1.44,0,0,0-1.19.54,19.25,19.25,0,0,0-.33,4.59v2.54c0,2-.34,4-1.67,5.38a6.54,6.54,0,0,1-4.56,1.64,7,7,0,0,1-4.45-1.24c-1.27-1-1.86-2.63-1.86-5.3v-5.31c0-2.34,0-2.72-1.43-2.84l-.6,0c-.14-.09-.1-.47,0-.54,1.19,0,2,.07,3,.07s1.77,0,2.94-.07c.14.07.19.45,0,.54l-.57,0c-1.38.12-1.43.5-1.43,2.84v4.85c0,3.63,1.19,6,4.84,6,3.46,0,4.77-2.56,4.77-6Z"/><path id="L" class="cls-2" d="M74.05,131.9c0-2.36,0-2.72-1.61-2.83l-.62,0c-.15-.09-.1-.49.05-.56,1.39,0,2.23.07,3.22.07s1.8,0,3-.07c.15.07.2.47.05.56l-.59,0c-1.46.11-1.51.47-1.51,2.83v7.83c0,1.42.07,2,.52,2.43.27.25.74.52,2.69.52,2.11,0,2.63-.09,3-.3a4.77,4.77,0,0,0,1.63-2.22c.15-.12.62,0,.62.13a16.58,16.58,0,0,1-1,3.15c-1.26,0-3.61-.07-6.16-.07H75.09c-1,0-1.83,0-3.22.07a.4.4,0,0,1-.05-.56l.74-.07c1.44-.13,1.49-.45,1.49-2.81Z"/><path id="O" class="cls-2" d="M54.65,136.05c0-4.49,3.54-7.93,8.4-7.93,5.46,0,8.2,3.75,8.2,7.71a7.88,7.88,0,0,1-8.2,7.85C57.81,143.68,54.65,140.1,54.65,136.05Zm14.24.48c0-3.71-1.73-7.72-6.24-7.72-2.45,0-5.64,1.6-5.64,6.53,0,3.32,1.7,7.64,6.35,7.64C66.19,143,68.89,141,68.89,136.53Z"/><path id="C" class="cls-2" d="M39.74,127.27A11.78,11.78,0,0,1,47.1,125a20.69,20.69,0,0,1,4.82.66,2,2,0,0,0,.77.1c0,.63.16,2.34.38,4a.59.59,0,0,1-.74.05c-.41-1.85-1.63-4-5.58-4-4.17,0-7.72,2.63-7.72,8.25s3.63,8.85,8.1,8.85A5.8,5.8,0,0,0,52.82,139a.57.57,0,0,1,.71.11,10.18,10.18,0,0,1-1.31,3.72,5.16,5.16,0,0,0-.95.27,16,16,0,0,1-4.31.62,11.89,11.89,0,0,1-6.78-1.82,8.73,8.73,0,0,1-3.87-7.46A9,9,0,0,1,39.74,127.27Z"/><path id="H" class="cls-2" d="M134.89,115c-1.16,0-1.21,0-1.21.72v3.17c0,2.36.12,2.68,1.48,2.81l.7.07c.15.09.1.49-.05.56-1.3,0-2.13-.07-3.07-.07s-1.86,0-2.81.07a.42.42,0,0,1-.05-.56l.41-.07c1.36-.22,1.41-.45,1.41-2.81v-8.1c0-2.36-.17-2.74-1.43-2.83l-.63,0c-.14-.09-.09-.49.05-.56,1.19,0,2,.07,3.05.07s1.77,0,2.81-.07c.14.07.19.47,0,.56l-.45,0c-1.41.13-1.46.47-1.46,2.83v2.59c0,.7,0,.72,1.21.72h6.92c1.17,0,1.21,0,1.21-.72v-2.59c0-2.36,0-2.7-1.47-2.83l-.46,0c-.15-.09-.1-.49,0-.56,1.11.05,1.93.07,2.93.07s1.76,0,2.85-.07c.15.07.19.47.05.56l-.51,0c-1.4.13-1.45.47-1.45,2.83v8.1c0,2.36.05,2.65,1.45,2.81l.58.07c.15.09.1.49,0,.56-1.16,0-2-.07-2.92-.07s-1.87,0-2.93.07a.4.4,0,0,1,0-.56l.46-.07c1.47-.22,1.47-.45,1.47-2.81v-3.17c0-.68,0-.72-1.21-.72Z"/><path id="S" class="cls-2" d="M121.54,122.56a9.42,9.42,0,0,1-4.14-.83,8.93,8.93,0,0,1-.72-3.15.54.54,0,0,1,.64-.07,4.58,4.58,0,0,0,4.56,3.35c2.23,0,3.32-1.23,3.32-2.58,0-1-.24-2.1-2.18-3.15l-2.52-1.4c-1.33-.74-2.87-2-2.87-3.87,0-2.13,2-3.86,5.42-3.86a11.86,11.86,0,0,1,2.47.29,4,4,0,0,0,.92.13,8.44,8.44,0,0,1,.48,2.75.61.61,0,0,1-.66.07,3.34,3.34,0,0,0-3.61-2.55c-2.6,0-3.16,1.47-3.16,2.5,0,1.31,1.28,2.25,2.26,2.77l2.12,1.12c1.67.88,3.32,2.18,3.32,4.32C127.19,120.87,125,122.56,121.54,122.56Z"/><path id="I-2" data-name="I" class="cls-2" d="M110.35,110.84c0-2.39,0-2.77-1.52-2.88l-.63,0c-.15-.09-.1-.49,0-.56,1.25.05,2.1.07,3.15.07s1.84,0,3.09-.07c.15.07.2.47.05.56l-.62,0c-1.47.11-1.52.49-1.52,2.88v8c0,2.39,0,2.7,1.52,2.86l.62.07c.15.09.1.49-.05.56-1.25,0-2.09-.07-3.09-.07s-1.9,0-3.15.07a.4.4,0,0,1,0-.56l.63-.07c1.47-.16,1.52-.47,1.52-2.86Z"/><path id="T" class="cls-2" d="M100.32,118.89c0,2.36.05,2.7,1.41,2.81l.75.07c.14.09.09.49,0,.56-1.33,0-2.13-.07-3.07-.07s-1.75,0-3.25.07a.39.39,0,0,1,0-.56l.85-.07c1.33-.11,1.45-.45,1.45-2.81v-10c0-.7,0-.72-.71-.72H96.42a4.94,4.94,0,0,0-2.88.56,4.11,4.11,0,0,0-1.05,1.55.46.46,0,0,1-.61-.16,22.93,22.93,0,0,0,.89-3.35c.07,0,.37-.07.44,0,.14.72.92.7,2,.7h9.47c1.27,0,1.48,0,1.83-.63.12-.05.37,0,.42.07a13,13,0,0,0-.35,3.42c-.09.18-.49.18-.61,0-.07-.56-.23-1.39-.58-1.64a4.86,4.86,0,0,0-2.72-.56H101c-.7,0-.68,0-.68.76Z"/><path id="I-3" data-name="I" class="cls-2" d="M86.47,110.84c0-2.39,0-2.77-1.52-2.88l-.62,0c-.15-.09-.1-.49,0-.56,1.25.05,2.09.07,3.14.07s1.85,0,3.1-.07c.15.07.2.47,0,.56L90,108c-1.47.11-1.52.49-1.52,2.88v8c0,2.39,0,2.7,1.52,2.86l.63.07c.15.09.1.49,0,.56-1.25,0-2.1-.07-3.1-.07s-1.89,0-3.14.07a.4.4,0,0,1,0-.56l.62-.07c1.47-.16,1.52-.47,1.52-2.86Z"/><path id="R" class="cls-2" d="M82.66,121.77l-.63-.06-.34,0c-.91-.16-1.28-1-1.71-1.73l-2.16-3.76c-.37-.63-.77-1.47-1.63-1.59,2.22-.27,4.22-1.54,4.22-3.74,0-2.53-2.51-3.66-5-3.66-1.52,0-2.9,0-4.45,0-.85,0-1.87,0-2.72,0-.47,0-.48.1-.48.36s.16.28.67.31c1.8.1,1.73.44,1.73,2v9.86c0,1.41.12,1.83-1.36,2l-.36,0-.62.06a.41.41,0,0,0,0,.57l.92,0c.82,0,1.64-.09,2.46-.09s1.61.07,2.42.09h0l.93,0a.4.4,0,0,0,0-.56L74,121.7l-.35,0c-1.5-.11-1.41-.53-1.41-2V116c0-.22,0-.8.14-1s.37-.12.58-.12c2,0,2,.19,3,1.88l2.61,4.7c.22.36.38.82.91.82h2.27l.92,0A.4.4,0,0,0,82.66,121.77Zm-9.1-7.39c-.45,0-1.36.17-1.36-.44v-4.31c0-1.69,0-1.93,2.08-1.93,2.37,0,3.84,1.21,3.84,3.42a2.82,2.82,0,0,1-1.23,2.46A5.48,5.48,0,0,1,73.56,114.38Z"/><path id="B-2" data-name="B" class="cls-2" d="M53.59,108.25c0-2-.13-2.47-1.45-2.57l-.91-.07c-.15-.12-.11-.64,0-.66,1.57-.14,3.56-.21,6.28-.21a12.15,12.15,0,0,1,4.91.74,3.44,3.44,0,0,1,2.22,3.29c0,1.9-1.23,2.87-3,3.61,0,.26.23.34.55.39a4.53,4.53,0,0,1,3.92,4.4c0,3.06-2.51,5.11-7.77,5.11-.85,0-2.28-.08-3.51-.08s-2.28,0-3.36.08a.47.47,0,0,1-.06-.66l.53-.08c1.54-.24,1.6-.52,1.6-3.29Zm2.4,3.5c0,.73,0,.79,1.52.73,3-.1,4.59-.89,4.59-3.37s-2.14-3.55-4.36-3.55a3.81,3.81,0,0,0-1.34.16c-.29.08-.41.21-.41.68Zm0,6.11c0,.94.06,2.29.61,2.87a3.06,3.06,0,0,0,2.31.73c2.6,0,4.59-1,4.59-3.68,0-2.08-1.17-4.51-5.81-4.51-1.58,0-1.7.16-1.7.69Z"/></g><path id="White_Symbol_Bkgd" data-name="White Symbol Bkgd" class="cls-2" d="M63.93,91.6c15.81,0,37.68,8.9,53.55,8.9,11.32,0,22.37-3,28.66-7.47a48.11,48.11,0,1,0-94.89-.09A78.36,78.36,0,0,1,63.93,91.6Z"/><g id="Gold_Sunrays" data-name="Gold Sunrays"><polygon class="cls-1" points="129.78 73.87 131.69 74.66 135.9 71.72 129.78 73.87"/><path class="cls-1" d="M58.9,70.59l-5-1.76.25-.62,5.63,1.88h0l.75-.42.29-.19L54.7,66.86l.26-.64,13.71,5.54.45-.19L55.53,65l.3-.62L70.23,71l.2-.1L56.47,63l.28-.6,20.17,11c.17-.31.51-.86.69-1.16A180.66,180.66,0,0,0,62.54,59.6a179,179,0,0,0,17,9.84c.31-.39.56-.7.89-1.07L63.23,53.22l.47-.47L77.58,64.59,64.72,51.7l.48-.5,14.44,14L66.2,50.24l.51-.47L79.14,63.08,67.8,48.79l.49-.44L82.83,66c.37-.32.68-.57,1.08-.87a179.88,179.88,0,0,0-9.2-17.26,178.53,178.53,0,0,0,12,15.41c.42-.24.84-.47,1.28-.68l-.07,0L77.74,42.25l.6-.26,8.45,16.17L79.68,41.4l.64-.28,8.16,18.35L81.6,40.6l.65-.24,6.54,17-5.16-17.5.62-.23,6.8,21.71,0,.06h0c.45-.15.91-.28,1.37-.41a177.06,177.06,0,0,0-2.06-19.34A178.55,178.55,0,0,0,95.7,60.32c.47-.06,1-.11,1.44-.14l0,0h.06l0,0L95.32,37.44l.66,0,1.77,18.16-.31-18.21.7,0,.69,20.07.69-20.07.7,0-.31,18.21,1.77-18.16.66,0-1.83,22.67,0,0h0c.47,0,.94.07,1.41.13a180.34,180.34,0,0,0,5.33-18.67,179.25,179.25,0,0,0-2.06,19.29c.46.13.93.26,1.38.41l6.78-21.63.62.23-5.17,17.5,6.54-17,.65.23-6.88,18.88,8.17-18.36.63.29-7.1,16.76,8.44-16.17.61.26L109.7,62.6h0c.42.21.83.42,1.23.65a179.47,179.47,0,0,0,12-15.34,179.08,179.08,0,0,0-9.15,17.16c.39.3.77.6,1.15.92l14.36-17.5.49.44-11.34,14.3,12.43-13.31.51.46L117.9,65.31l14.45-14,.48.49L120,64.73l13.88-11.84.47.48-17,15h0c.3.33.58.68.86,1a180.84,180.84,0,0,0,16.88-9.77,179.28,179.28,0,0,0-15,12.52c.21.35.55.95.74,1.31L140.73,62.6l.29.6-15.87,9,16.51-7.69.3.63-15.38,7.49.3.1,15.64-6.33.26.65-14.54,6.18.27.12,9.69-3.24,1.46-1,.49.37,3.19-1.07.25.61-2.76,1,4,3,1.27.71a48.74,48.74,0,0,0-95,1.13l.18-.08.59-.27.36-.17Z"/></g><path id="Blue_Mountains_Water" data-name="Blue Mountains Water" class="cls-4" d="M50.78,94A80,80,0,0,1,64,92.54c15.81,0,37.68,8.91,53.54,8.91,11.64,0,23-3.2,29.19-7.85a49.43,49.43,0,0,0,.73-8.48,48.5,48.5,0,0,0-1.34-11.38l-6.61-3.69-7.76,5.44-5.23-2c-1.76.89-12.67,8.19-12.67,8.19l-4.18-3-4.5-.89-6-4.36-6.87,4.71s-7.67,4.45-7.93,4.45-9.24-7.12-9.24-7.12L71,71.05c-.71.45-3.52,1.74-3.52,1.74l-.15,0L64.59,72l-3.31-1.76L51.23,74.79l-.18.08A49.44,49.44,0,0,0,50,85.12,48.83,48.83,0,0,0,50.78,94Z"/></g></svg>