<svg xmlns="http://www.w3.org/2000/svg" xmlns:xlink="http://www.w3.org/1999/xlink" viewBox="0 0 12.07 10.72"><defs><style>.cls-1,.cls-4{fill:none;}.cls-2{clip-path:url(#clip-path);}.cls-3{fill:#231f20;}.cls-4{stroke:#174883;stroke-miterlimit:10;}</style><clipPath id="clip-path"><rect class="cls-1" width="12.07" height="10.72"/></clipPath></defs><title>Asset 2</title><g id="Layer_2" data-name="Layer 2"><g id="Layer_1-2" data-name="Layer 1"><g class="cls-2"><path class="cls-3" d="M6,.5C3,.5.5,2.48.5,4.92A4.14,4.14,0,0,0,2.56,8.36a7.67,7.67,0,0,1-.87,1.71c1,.45,2.07-.22,2.85-.89A7.31,7.31,0,0,0,6,9.34c3.06,0,5.54-2,5.54-4.42S9.09.5,6,.5Z"/><path class="cls-4" d="M6,.5C3,.5.5,2.48.5,4.92A4.14,4.14,0,0,0,2.56,8.36a7.67,7.67,0,0,1-.87,1.71c1,.45,2.07-.22,2.85-.89A7.31,7.31,0,0,0,6,9.34c3.06,0,5.54-2,5.54-4.42S9.09.5,6,.5Z"/></g></g></g></svg>