<svg xmlns="http://www.w3.org/2000/svg" xmlns:xlink="http://www.w3.org/1999/xlink" viewBox="0 0 10.4 10.21"><defs><style>.cls-1{fill:none;}.cls-2{clip-path:url(#clip-path);}.cls-3{fill:#231f20;}</style><clipPath id="clip-path" transform="translate(0 0)"><rect class="cls-1" width="10.4" height="10.21"/></clipPath></defs><title>Asset 4</title><g id="Layer_2" data-name="Layer 2"><g id="Layer_1-2" data-name="Layer 1"><g class="cls-2"><path class="cls-3" d="M8.4,7.59a.37.37,0,0,0,.07-.51,4.13,4.13,0,0,0-6.54,0A.36.36,0,0,0,2,7.59a.38.38,0,0,0,.52-.08,3.38,3.38,0,0,1,5.34,0,.38.38,0,0,0,.3.15.34.34,0,0,0,.22-.07Zm-1.71-5c-.41,0-.75.49-.75,1.1s.34,1.09.75,1.09.74-.49.74-1.09-.33-1.1-.74-1.1m-3,0C3.3,2.55,3,3,3,3.65s.33,1.09.74,1.09.75-.49.75-1.09-.33-1.1-.75-1.1M5.2,0A5.16,5.16,0,0,0,0,5.11a5.15,5.15,0,0,0,5.2,5.1,5.15,5.15,0,0,0,5.2-5.1A5.16,5.16,0,0,0,5.2,0m0,.73A4.42,4.42,0,0,1,9.66,5.11,4.42,4.42,0,0,1,5.2,9.48,4.42,4.42,0,0,1,.74,5.11,4.42,4.42,0,0,1,5.2.73" transform="translate(0 0)"/></g></g></g></svg>