<svg xmlns="http://www.w3.org/2000/svg" xmlns:xlink="http://www.w3.org/1999/xlink" viewBox="0 0 12.07 11.92"><defs><style>.cls-1,.cls-3{fill:none;}.cls-2{clip-path:url(#clip-path);}.cls-3{stroke:#231f20;stroke-miterlimit:10;}.cls-4{fill:#231f20;}</style><clipPath id="clip-path" transform="translate(0 0)"><rect class="cls-1" width="12.07" height="11.92"/></clipPath></defs><title>Asset 1</title><g id="Layer_2" data-name="Layer 2"><g id="Layer_1-2" data-name="Layer 1"><g class="cls-2"><path class="cls-3" d="M6.26,11.26a10.78,10.78,0,0,0,3.69,0,2.74,2.74,0,0,0,1-.85,4.16,4.16,0,0,0,.64-2.15,9.11,9.11,0,0,0-.3-2.65,1.16,1.16,0,0,0-.46-.68,2.21,2.21,0,0,0-1.12-.32,7,7,0,0,0-1.93.27,3.19,3.19,0,0,0,.64-1.63,7.44,7.44,0,0,0,0-1.7A1.08,1.08,0,0,0,8.25,1,1.23,1.23,0,0,0,7,.56C6.67.72,6.36,3,5.22,4.15A10,10,0,0,1,3.84,5.37a9.76,9.76,0,0,0-.07,3.28,4,4,0,0,0,.36,1.41,1.81,1.81,0,0,0,.81.76A5,5,0,0,0,6.26,11.26Z" transform="translate(0 0)"/><path class="cls-4" d="M0,4.93H1.54A1.59,1.59,0,0,1,3.12,6.52V9.74a1.57,1.57,0,0,1-1.58,1.57H0Z" transform="translate(0 0)"/></g></g></g></svg>