<svg xmlns="http://www.w3.org/2000/svg" viewBox="0 0 427 296"><defs><style>.cls-1{opacity:0.8;}.cls-2{fill:#004b8d;}.cls-3{fill:#fff;}</style></defs><title>Artboard 1</title><g id="_" data-name="@"><g class="cls-1"><path class="cls-2" d="M211.08,77.52l-17.33,58.66q-9.52,33.13-11.62,42a64.32,64.32,0,0,0-2.09,14,10.85,10.85,0,0,0,3.23,8,10.64,10.64,0,0,0,7.81,3.24q10.86,0,25.9-10.76t25.8-34.95a122.39,122.39,0,0,0,10.76-50.27,93,93,0,0,0-12.09-46.65A81.31,81.31,0,0,0,207.17,28q-22.18-11.43-49-11.42a118.09,118.09,0,0,0-63.23,18q-29.13,18-46.18,52t-17,70.36q0,33.9,15,61.7t42.09,42a124.07,124.07,0,0,0,58.36,14.19q38.66,0,70-20.76t48.47-60.75h8.57q-13.33,40.38-48.18,65.42t-79.6,25A132.81,132.81,0,0,1,81.2,267.19a116.16,116.16,0,0,1-46.75-47q-16.67-30.47-16.66-67A149.8,149.8,0,0,1,36.07,80.57,132.28,132.28,0,0,1,87.3,27.92,138,138,0,0,1,157.18,9q30.66,0,55.13,12.66a86.22,86.22,0,0,1,37.33,36.85,108.34,108.34,0,0,1,12.85,51.61q0,26.85-12,53.32T219.93,202q-18.57,12.09-38.75,12.09-11.24,0-17-5.33t-5.71-14.85q0-8.19,2.66-21.71-21.7,26.46-34.85,34.27t-23.23,7.81q-10.47,0-18.56-9.42t-8.1-25.05q0-21.32,13.9-47.79a123.49,123.49,0,0,1,37-43.23q16.94-12.18,30.47-12.19,9.7,0,16.28,5.05t9,15.33l4.76-16.19Zm-51.8,5.91q-11,0-22.47,11.61-16.57,17.14-28.38,46.28-8.76,21.13-8.76,34.08,0,9.34,5.24,15.14t11.71,5.81q8.58,0,18-6.47t19.8-20a98.12,98.12,0,0,0,15.14-27q8.19-23.41,8.19-38.09,0-9.7-5.43-15.52A17.2,17.2,0,0,0,159.28,83.43Z"/></g></g><g id="_Work" data-name="@Work"><path class="cls-3" d="M139.63,142.56l-7.33,24.81q-4,14-4.92,17.77a27.35,27.35,0,0,0-.88,5.92,4.56,4.56,0,0,0,1.37,3.38,4.46,4.46,0,0,0,3.3,1.37q4.59,0,11-4.55T153,176.48a51.7,51.7,0,0,0,4.56-21.27,39.37,39.37,0,0,0-5.12-19.74A34.33,34.33,0,0,0,138,121.61a44.67,44.67,0,0,0-20.75-4.83,50,50,0,0,0-26.75,7.61Q78.16,132,71,146.39a65.58,65.58,0,0,0-7.21,29.77,54.17,54.17,0,0,0,6.32,26.1A41.92,41.92,0,0,0,87.87,220a54,54,0,0,0,54.3-2.78q13.25-8.78,20.5-25.7h3.63a54.28,54.28,0,0,1-20.39,27.68,56.24,56.24,0,0,1-33.67,10.59,56.14,56.14,0,0,1-27.56-7A49.16,49.16,0,0,1,64.9,202.9a58.09,58.09,0,0,1-7-28.36,63.32,63.32,0,0,1,7.73-30.69,56,56,0,0,1,21.67-22.28,58.43,58.43,0,0,1,29.57-8,50,50,0,0,1,23.32,5.35,36.41,36.41,0,0,1,15.79,15.59,45.79,45.79,0,0,1,5.44,21.84,54.21,54.21,0,0,1-5.07,22.55q-5.09,11.21-12.93,16.32a29.65,29.65,0,0,1-16.4,5.12c-3.17,0-5.56-.76-7.17-2.26a8.17,8.17,0,0,1-2.42-6.28,50.28,50.28,0,0,1,1.13-9.19q-9.18,11.21-14.74,14.5T94,200.41c-3,0-5.57-1.33-7.86-4s-3.42-6.19-3.42-10.6q0-9,5.88-20.22a52.35,52.35,0,0,1,15.63-18.29q7.17-5.15,12.89-5.15a11,11,0,0,1,6.89,2.13,11.14,11.14,0,0,1,3.83,6.49l2-6.85Zm-21.91,2.5q-4.68,0-9.51,4.91-7,7.26-12,19.58Q92.49,178.49,92.5,184a9.25,9.25,0,0,0,2.21,6.41,6.6,6.6,0,0,0,5,2.45,13.52,13.52,0,0,0,7.61-2.74,38.71,38.71,0,0,0,8.38-8.46,41.62,41.62,0,0,0,6.41-11.44q3.47-9.9,3.46-16.11a9.2,9.2,0,0,0-2.3-6.57A7.3,7.3,0,0,0,117.72,145.06Z"/><path class="cls-3" d="M270.63,117.66V120a10.41,10.41,0,0,0-5.35,1.21,12.31,12.31,0,0,0-4,4.43A76.07,76.07,0,0,0,257.42,136l-23.6,68.16h-2.5l-19.26-54.06-19.17,54.06h-2.26l-25-70.25a98.46,98.46,0,0,0-3.63-9.27,8.14,8.14,0,0,0-3.34-3.5,12.24,12.24,0,0,0-5.84-1.17v-2.34H184V120h-1.45a7.54,7.54,0,0,0-5,1.49,4.68,4.68,0,0,0-1.73,3.67q0,2.18,2.74,10l16.6,47.45,14-40.36-2.49-7.09-1.94-5.64a31.85,31.85,0,0,0-3-5.48,7.29,7.29,0,0,0-2-2,10.77,10.77,0,0,0-3.06-1.61,13.34,13.34,0,0,0-3.79-.4v-2.34h33V120h-2.26c-2.3,0-4,.5-5.07,1.49a5.26,5.26,0,0,0-1.61,4.07q0,3.13,2.74,11.12l16.27,45.92,16-46.57q2.75-7.72,2.74-10.71a4.56,4.56,0,0,0-.88-2.7,4.62,4.62,0,0,0-2.26-1.73,17.86,17.86,0,0,0-6.2-.89v-2.34Z"/><path class="cls-3" d="M283.46,143.45q13,0,20.87,9.82A30.38,30.38,0,0,1,311,172.61a36.3,36.3,0,0,1-3.7,15.59A27,27,0,0,1,297.16,200a26.71,26.71,0,0,1-14.34,4,24.3,24.3,0,0,1-20.55-10.31,31.93,31.93,0,0,1-6.44-19.5,34.51,34.51,0,0,1,3.9-15.59A26.69,26.69,0,0,1,270,147.15,26.36,26.36,0,0,1,283.46,143.45Zm-1.93,4a13,13,0,0,0-6.65,2q-3.35,2-5.4,6.89A33.07,33.07,0,0,0,267.43,169q0,12.5,4.95,21.56t13.09,9.06a12.19,12.19,0,0,0,10-5q4-5,4-17.16,0-15.23-6.6-23.92Q288.37,147.48,281.53,147.47Z"/><path class="cls-3" d="M331.36,143.45v12.89q7.17-12.9,14.75-12.89a8,8,0,0,1,5.64,2.09,6.44,6.44,0,0,1,2.25,4.83,5.71,5.71,0,0,1-1.61,4.11,5.13,5.13,0,0,1-3.86,1.69,8.4,8.4,0,0,1-4.92-2.13c-1.83-1.42-3.17-2.14-4-2.14a3.69,3.69,0,0,0-2.41,1.21,30.06,30.06,0,0,0-5.81,8.46v27.31a16.74,16.74,0,0,0,1.21,7.18,6.54,6.54,0,0,0,2.86,2.82,12.58,12.58,0,0,0,5.92,1.12v2.26H312.11V200c2.9,0,5.05-.45,6.44-1.37a4.88,4.88,0,0,0,2.18-3.14,32.12,32.12,0,0,0,.32-6V167.29q0-10-.4-11.88a4.75,4.75,0,0,0-1.49-2.78,4.16,4.16,0,0,0-2.7-.89,12,12,0,0,0-4.35,1l-.65-2.26,17.25-7Z"/><path class="cls-3" d="M369.78,113.56v56.79l14.58-13.21a43.06,43.06,0,0,0,5.31-5.32,2.65,2.65,0,0,0,.49-1.53,2.84,2.84,0,0,0-1-2.13,5.31,5.31,0,0,0-3.42-1v-2h24.81v2a22.76,22.76,0,0,0-8.46,1.53,28.68,28.68,0,0,0-7.49,5.16l-14.66,13.53,14.66,18.45a107.08,107.08,0,0,0,8.3,9.75A11.81,11.81,0,0,0,413.52,200v2.26H385.73V200a6.06,6.06,0,0,0,3.26-.72,2.21,2.21,0,0,0,.85-1.86c0-.91-.84-2.44-2.5-4.59l-17.56-22.39v19c0,3.65.26,6.07.8,7.25a5,5,0,0,0,2.22,2.5q1.41.72,6.24.8v2.26H350V200a15.79,15.79,0,0,0,6.52-1,4.56,4.56,0,0,0,2-2.1q1-2.1,1-7.17v-52q0-9.91-.44-12.13a5.27,5.27,0,0,0-1.45-3.06,3.91,3.91,0,0,0-2.62-.85,12.25,12.25,0,0,0-3.95,1l-1-2.18,17-7Z"/></g></svg>