<svg xmlns="http://www.w3.org/2000/svg" xmlns:xlink="http://www.w3.org/1999/xlink" viewBox="0 0 49.35 37.78"><defs><style>.cls-1{fill:none;}.cls-2{clip-path:url(#clip-path);}.cls-3{fill:#1180c4;}</style><clipPath id="clip-path" transform="translate(0)"><rect class="cls-1" width="49.35" height="37.78"/></clipPath></defs><title>Asset 2</title><g id="Layer_2" data-name="Layer 2"><g id="Layer_1-2" data-name="Layer 1"><g class="cls-2"><path class="cls-3" d="M8.58,0A12.41,12.41,0,0,1,18,4.47a17.42,17.42,0,0,1,3.74,10.91A19.59,19.59,0,0,1,15.64,29.8a30.33,30.33,0,0,1-13.73,8,3.21,3.21,0,0,1-1-2,7.22,7.22,0,0,1,0-2,25.84,25.84,0,0,0,8.27-5.35,11.65,11.65,0,0,0,3.49-8.27,7.55,7.55,0,0,0-2.44-5.71A13.14,13.14,0,0,0,4.7,12.37a6.19,6.19,0,0,1-3.15-1.61A4.63,4.63,0,0,1,0,7,6.76,6.76,0,0,1,1.84,2.34Q3.82.15,8.58,0M36.16,0a12.37,12.37,0,0,1,9.38,4.47,17.29,17.29,0,0,1,3.81,10.91A19.67,19.67,0,0,1,43.26,29.8a30.78,30.78,0,0,1-13.79,8,3.25,3.25,0,0,1-1-2,6.5,6.5,0,0,1,0-2,25.74,25.74,0,0,0,8.25-5.35,11.54,11.54,0,0,0,3.55-8.27,7.48,7.48,0,0,0-2.49-5.71,13,13,0,0,0-5.52-2.13,6.2,6.2,0,0,1-3.14-1.61A4.63,4.63,0,0,1,27.59,7a6.76,6.76,0,0,1,1.83-4.69C30.74.88,33,.1,36.16,0" transform="translate(0)"/></g></g></g></svg>