<svg xmlns="http://www.w3.org/2000/svg" viewBox="0 0 50 50"><title>surface1</title><g id="Layer_2" data-name="Layer 2"><g id="Layer_1-2" data-name="Layer 1"><g id="surface1"><path d="M40.38,0a9.61,9.61,0,0,0-9.61,9.62c0,.16.05.31.06.48L15.75,17.67a9.45,9.45,0,0,0-6.13-2.29,9.62,9.62,0,0,0,0,19.24,9.45,9.45,0,0,0,6.13-2.29L30.83,39.9c0,.17-.06.32-.06.48a9.62,9.62,0,1,0,9.61-9.61,9.49,9.49,0,0,0-6.13,2.28L19.17,25.48c0-.16.06-.31.06-.48s-.05-.32-.06-.48L34.25,17a9.49,9.49,0,0,0,6.13,2.28A9.62,9.62,0,1,0,40.38,0Z"/></g></g></g></svg>