<svg xmlns="http://www.w3.org/2000/svg" xmlns:xlink="http://www.w3.org/1999/xlink" viewBox="0 0 142.66 22.83"><defs><style>.cls-1{fill:none;}.cls-2{clip-path:url(#clip-path);}.cls-3{fill:#fff;}.cls-4{fill:#174883;}</style><clipPath id="clip-path"><rect class="cls-1" width="142.65" height="22.83"/></clipPath></defs><title>Asset 1</title><g id="Layer_2" data-name="Layer 2"><g id="Layer_1-2" data-name="Layer 1"><g class="cls-2"><path class="cls-3" d="M11.41,22.83A11.42,11.42,0,1,0,0,11.41,11.42,11.42,0,0,0,11.41,22.83"/><path class="cls-4" d="M17.66,11.44a1.93,1.93,0,0,0,1.75-1,2.87,2.87,0,0,1-1.9.21c0-.13-.06-.26-.09-.37A3.47,3.47,0,0,0,14,7.56l.38-.14c.16-.06,1.15-.22,1-.57s-1.34.23-1.57.3c.3-.11.8-.3.85-.65a2.35,2.35,0,0,0-1.26.6.85.85,0,0,0,.24-.48c-1.23.78-1.94,2.36-2.52,3.9a5.87,5.87,0,0,0-1.23-1A30.76,30.76,0,0,0,5.75,7.71a2.17,2.17,0,0,0,1.38,2,3.44,3.44,0,0,0-1,.12c.14.73.59,1.32,1.81,1.61a1.47,1.47,0,0,0-1.11.44,1.87,1.87,0,0,0,2,1c-1.24.53-.51,1.52.5,1.38a4.29,4.29,0,0,1-6,.16c4.07,5.53,12.9,3.27,14.22-2.06a2.43,2.43,0,0,0,1.92-.73,3.75,3.75,0,0,1-1.82-.19Z"/><path class="cls-3" d="M71.33,22.83A11.42,11.42,0,1,0,59.91,11.41,11.41,11.41,0,0,0,71.33,22.83"/><path class="cls-4" d="M64.8,16.82h2.87V8.18H64.8ZM66.25,4a1.5,1.5,0,1,0,0,3h0a1.5,1.5,0,1,0,0-3ZM78,11.86v5H75.16V12.19c0-1.16-.42-1.95-1.46-1.95a1.57,1.57,0,0,0-1.47,1,1.88,1.88,0,0,0-.1.7v4.83H69.26s0-7.83,0-8.64h2.87V9.4l0,0h0v0A2.86,2.86,0,0,1,74.72,8C76.61,8,78,9.21,78,11.86"/><path class="cls-3" d="M131.24,22.83a11.42,11.42,0,1,0-11.41-11.42,11.42,11.42,0,0,0,11.41,11.42"/><path class="cls-4" d="M136,20.56h-9.45a2.7,2.7,0,0,1-2.7-2.69V14.65a2.7,2.7,0,0,1,2.7-2.69H136a2.7,2.7,0,0,1,2.69,2.69v3.22A2.7,2.7,0,0,1,136,20.56"/><path class="cls-3" d="M133.43,18.52c0,.46-.14.69-.41.69a.66.66,0,0,1-.46-.23V15.84a.64.64,0,0,1,.46-.22c.27,0,.41.23.41.7Zm.08-3.74a1.23,1.23,0,0,0-.95.56V13.08h-.94V20h.94v-.5a1.26,1.26,0,0,0,.95.57.7.7,0,0,0,.74-.59,3.44,3.44,0,0,0,.1-1V16.4a3.48,3.48,0,0,0-.1-1,.7.7,0,0,0-.74-.59"/><path class="cls-3" d="M136.93,16.81H136v-.48c0-.48.15-.71.46-.71s.46.23.46.71Zm-.45-2a1.32,1.32,0,0,0-1.12.53,2.08,2.08,0,0,0-.28,1.2v1.81a2,2,0,0,0,.3,1.21,1.35,1.35,0,0,0,1.13.53,1.26,1.26,0,0,0,1.12-.56,1.16,1.16,0,0,0,.21-.56,4.33,4.33,0,0,0,0-.6v-.13h-1v.3a1.42,1.42,0,0,1,0,.23v.1a.42.42,0,0,1-.43.37c-.31,0-.47-.24-.47-.72v-.91h1.86V16.51a2,2,0,0,0-.29-1.2,1.25,1.25,0,0,0-1.1-.53"/><path class="cls-3" d="M129.88,18.77c-.2.29-.4.44-.59.44s-.2-.07-.21-.22a2.13,2.13,0,0,1,0-.36V14.85h-.93v4.06a2.24,2.24,0,0,0,.09.76.55.55,0,0,0,.59.39,1.48,1.48,0,0,0,1.06-.63V20h.94V14.85h-.94Z"/></g><polygon class="cls-3" points="124.75 14.06 125.84 14.06 125.84 19.99 126.88 19.99 126.88 14.06 128 14.06 128 13.08 124.75 13.08 124.75 14.06"/><g class="cls-2"><path class="cls-4" d="M133.26,5.16h.94V9a2.39,2.39,0,0,0,0,.37.21.21,0,0,0,.23.22c.18,0,.38-.14.59-.43v-4H136v5.19H135V9.78a1.57,1.57,0,0,1-1.08.64.61.61,0,0,1-.61-.38,2.91,2.91,0,0,1-.08-.77V5.16Z"/><path class="cls-4" d="M129.71,6.84a2.05,2.05,0,0,1,.3-1.22,1.26,1.26,0,0,1,1.09-.53,1.31,1.31,0,0,1,1.09.53,2.05,2.05,0,0,1,.3,1.22V8.66a2,2,0,0,1-.3,1.22,1.29,1.29,0,0,1-1.09.54A1.24,1.24,0,0,1,130,9.88a2,2,0,0,1-.3-1.22Z"/><path class="cls-4" d="M127.19,3.38l.74,2.73.72-2.73h1l-1.26,4.15v2.82h-1V7.53a19,19,0,0,0-.65-2.22c-.06-.21-.17-.53-.32-1s-.26-.76-.33-1Z"/><path class="cls-3" d="M131.1,9.56c.3,0,.45-.24.45-.71V6.66c0-.49-.15-.73-.45-.73s-.45.24-.45.73V8.85c0,.47.15.71.45.71"/></g></g></g></svg>