<?xml version="1.0" encoding="utf-8"?>
<!-- Generator: Adobe Illustrator 19.2.1, SVG Export Plug-In . SVG Version: 6.00 Build 0)  -->
<svg version="1.1" id="Layer_1" xmlns="http://www.w3.org/2000/svg" xmlns:xlink="http://www.w3.org/1999/xlink" x="0px" y="0px"
	 viewBox="0 0 440 440" style="enable-background:new 0 0 440 440;" xml:space="preserve">
<style type="text/css">
	.st0{enable-background:new    ;}
	.st1{fill:#4E4E50;}
</style>
<g class="st0">
	<path class="st1" d="M-513.7,390.8l1.8-12.9c7,1,12.7,1.5,16.4,1.5c8.3,0,9.3-2.3,9.3-3.9c0-6-27.3-3.2-27.3-23.3
		c0-12.1,11-17.7,22.8-17.7c6.6,0,12.6,1.1,18.3,3.2l-2.8,12.4c-5.3-1.2-9.4-2-15-2c-5.7,0-6.7,2.2-6.7,3.4
		c0,6.4,27.1,4.6,27.1,23.4c0,14.8-15,18.3-24.1,18.3C-501.8,393.2-508.2,392.5-513.7,390.8z"/>
	<path class="st1" d="M-462.7,364.8c0-22.8,11.6-30.1,28-30.1c17.1,0,23.6,11.5,23.6,28.4v6.1h-35.1c-0.1,8.8,6.6,10.4,15.3,10.4
		c3.7,0,9.8-1.2,15.5-2.3l2.5,13c-6.1,1.8-13.8,2.8-20.3,2.8C-451.2,393.2-462.7,387.1-462.7,364.8z M-428,358.3
		c0.2-6.8-2.7-11.5-8-11.5c-5.7,0-9.3,4.1-9.6,11.5H-428z"/>
	<path class="st1" d="M-403.5,364.8c0-22.8,11.6-30.1,28-30.1c17.1,0,23.6,11.5,23.6,28.4v6.1h-35.1c-0.1,8.8,6.6,10.4,15.3,10.4
		c3.7,0,9.8-1.2,15.5-2.3l2.5,13c-6.1,1.8-13.8,2.8-20.3,2.8C-392,393.2-403.5,387.1-403.5,364.8z M-368.9,358.3
		c0.2-6.8-2.7-11.5-8-11.5c-5.7,0-9.3,4.1-9.6,11.5H-368.9z"/>
	<path class="st1" d="M-344.4,363.1c0-19.2,13-28.5,29.5-28.5c3,0,5.5,0.4,7.1,0.6v-20.5h16.6V392h-16.6v-4
		c-2.4,1.9-5.5,4.8-12.3,4.8C-331,392.8-344.4,387.3-344.4,363.1z M-307.8,376.8v-28c-1.7-0.3-3.9-0.7-6.8-0.7
		c-9.4,0-13.3,5.5-13.3,15.3c0,12.2,5.3,15.3,11.1,15.3C-313.9,378.6-310.3,377.8-307.8,376.8z"/>
	<path class="st1" d="M-281,390.8l1.8-12.9c7,1,12.7,1.5,16.4,1.5c8.3,0,9.3-2.3,9.3-3.9c0-6-27.3-3.2-27.3-23.3
		c0-12.1,11-17.7,22.8-17.7c6.6,0,12.6,1.1,18.3,3.2l-2.8,12.4c-5.3-1.2-9.4-2-15-2c-5.7,0-6.7,2.2-6.7,3.4
		c0,6.4,27.1,4.6,27.1,23.4c0,14.8-15,18.3-24.1,18.3C-269.1,393.2-275.5,392.5-281,390.8z"/>
</g>
<g>
	<g>
		<path class="st1" d="M408.3,29.9L408.3,29.9 M408.3,29.9L371,410.5l-248.5-24.6L39.1,200.2l-7-15.4L408.3,29.9 M408.3,8
			c-0.4,0-0.4,0-0.9,0c-3.1,0-5.7,0.9-7.9,1.8L23.7,164.2c-5.7,2.2-9.7,6.6-11.9,12.3s-2.2,11.9,0,17.1l7,15.4l83.4,185.7
			c3.1,7,10.1,11.9,18,12.7L368.8,432c0.9,0,1.3,0,2.2,0c5.3,0,10.1-1.8,14-4.8c4.4-3.5,7.5-9.2,7.9-14.9l36.9-379.7
			c0-0.9,0-1.8,0-3.1C430.2,17.6,420.6,8,408.3,8C408.7,8,408.3,8,408.3,8L408.3,8z M408.3,51.9L408.3,51.9L408.3,51.9L408.3,51.9z"
			/>
	</g>
	<polygon class="st1" points="361.6,415 263.4,216.4 31.1,195.4 33,173.5 267.4,194.7 399.6,23.2 417.1,36.4 287,214.7 381.2,405.2 
			"/>
</g>
</svg>
